<?xml version="1.0" encoding="iso-8859-1"?>
<!-- Generator: Adobe Illustrator 19.0.0, SVG Export Plug-In . SVG Version: 6.00 Build 0)  -->
<svg version="1.1" id="Layer_1" xmlns="http://www.w3.org/2000/svg" xmlns:xlink="http://www.w3.org/1999/xlink" x="0px" y="0px"
	 viewBox="0 0 512 512" style="enable-background:new 0 0 512 512;" xml:space="preserve">
<path style="fill:#FFCD60;" d="M305.021,471.149c0-18.05,0-70.809,0-70.809h-98.043v54.468l21.787,38.128l76.255,10.894h32.681
	C319.652,503.83,305.021,489.199,305.021,471.149z"/>
<path style="fill:#FFEAB5;" d="M272.34,471.149v-16.34h-65.362v16.34c0,18.05-14.631,32.681-32.681,32.681h130.723
	C286.972,503.83,272.34,489.199,272.34,471.149z"/>
<path style="fill:#78E3EC;" d="M471.149,62.638h-32.681v315.915l65.362-21.787V95.319C503.83,77.345,489.123,62.638,471.149,62.638z
	"/>
<path style="fill:#D0FBFD;" d="M471.149,95.319c0-17.974-14.706-32.681-32.681-32.681H40.851c-17.974,0-32.681,14.706-32.681,32.681
	v261.447l231.489,21.787l231.489-21.787V95.319z"/>
<path style="fill:#FFCD60;" d="M471.149,356.766l-32.681,65.362h32.681c17.974,0,32.681-14.706,32.681-32.681v-32.681H471.149z"/>
<path style="fill:#FFEAB5;" d="M471.149,389.447v-32.681H8.17v32.681c0,17.974,14.706,32.681,32.681,32.681h397.617
	C456.443,422.128,471.149,407.421,471.149,389.447z"/>
<circle cx="256" cy="389.381" r="8.17"/>
<polygon style="fill:#FFEAB5;" points="354.043,62.638 354.043,269.617 299.574,302.298 299.574,29.957 "/>
<polygon style="fill:#FFFFFF;" points="321.362,40.851 321.362,291.404 157.957,269.617 157.957,62.638 "/>
<g>
	<path style="fill:#27467A;" d="M321.362,269.617l-32.681,54.468h32.681c17.974,0,32.681-14.706,32.681-32.681v-21.787H321.362z"/>
	<path style="fill:#27467A;" d="M321.362,8.17h-32.681l32.681,54.468h32.681V40.851C354.043,22.877,339.336,8.17,321.362,8.17z"/>
</g>
<g>
	<path style="fill:#2F5E88;" d="M321.362,269.617v21.787c0,17.974-14.706,32.681-32.681,32.681h-98.043
		c-17.974,0-32.681-14.706-32.681-32.681v-21.787H321.362z"/>
	<path style="fill:#2F5E88;" d="M321.362,40.851v21.787H157.957V40.851c0-17.974,14.706-32.681,32.681-32.681h98.043
		C306.655,8.17,321.362,22.877,321.362,40.851z"/>
</g>
<path d="M471.149,54.468h-84.426c-4.512,0-8.17,3.658-8.17,8.17s3.658,8.17,8.17,8.17h84.426c13.516,0,24.511,10.995,24.511,24.511
	v253.277H16.34V95.319c0-13.516,10.995-24.511,24.511-24.511h84.426c4.512,0,8.17-3.658,8.17-8.17s-3.658-8.17-8.17-8.17H40.851
	C18.325,54.468,0,72.793,0,95.319v294.128c0,22.526,18.325,40.851,40.851,40.851h256v40.851c0,9.19,3.051,17.678,8.192,24.511
	h-98.086c5.141-6.832,8.192-15.321,8.192-24.511v-16.34c0-4.512-3.658-8.17-8.17-8.17s-8.17,3.658-8.17,8.17v16.34
	c0,13.516-10.995,24.511-24.511,24.511H98.041c-4.512,0-8.17,3.658-8.17,8.17s3.658,8.17,8.17,8.17h315.915
	c4.512,0,8.17-3.658,8.17-8.17s-3.658-8.17-8.17-8.17h-76.254c-13.516,0-24.511-10.995-24.511-24.511v-40.851h157.957
	c22.526,0,40.851-18.325,40.851-40.851V95.319C512,72.793,493.675,54.468,471.149,54.468z M471.149,413.957H40.851
	c-13.516,0-24.511-10.995-24.511-24.511v-24.511H495.66v24.511C495.66,402.963,484.665,413.957,471.149,413.957z"/>
<path d="M190.638,332.255h130.723c22.526,0,40.851-18.325,40.851-40.851V40.851C362.213,18.325,343.888,0,321.362,0H190.638
	c-22.526,0-40.851,18.325-40.851,40.851v250.553C149.787,313.93,168.112,332.255,190.638,332.255z M321.362,315.915H190.638
	c-13.516,0-24.511-10.995-24.511-24.511v-13.617h179.745v13.617C345.872,304.92,334.877,315.915,321.362,315.915z M190.638,16.34
	h130.723c13.516,0,24.511,10.995,24.511,24.511v13.617H223.319c-4.512,0-8.17,3.658-8.17,8.17s3.658,8.17,8.17,8.17h122.553v190.638
	H166.128V70.809h24.511c4.512,0,8.17-3.658,8.17-8.17s-3.658-8.17-8.17-8.17h-24.511V40.851
	C166.128,27.335,177.123,16.34,190.638,16.34z"/>
<g>
</g>
<g>
</g>
<g>
</g>
<g>
</g>
<g>
</g>
<g>
</g>
<g>
</g>
<g>
</g>
<g>
</g>
<g>
</g>
<g>
</g>
<g>
</g>
<g>
</g>
<g>
</g>
<g>
</g>
</svg>
